<svg xmlns="http://www.w3.org/2000/svg" viewBox="0 0 32 32" aria-hidden="true">
  <path fill="currentColor" d="M16.04 3.2c-7.07 0-12.82 5.66-12.82 12.63 0 2.23.6 4.41 1.73 6.32L3.1 28.8l6.85-1.78a12.96 12.96 0 0 0 6.09 1.51c7.07 0 12.82-5.66 12.82-12.63S23.11 3.2 16.04 3.2Zm0 23.19a10.8 10.8 0 0 1-5.5-1.5l-.4-.24-4.06 1.05 1.08-3.9-.26-.4a10.36 10.36 0 0 1-1.6-5.57c0-5.8 4.82-10.51 10.74-10.51s10.74 4.72 10.74 10.51c0 5.8-4.82 10.56-10.74 10.56Zm5.9-7.9c-.32-.16-1.9-.92-2.19-1.02-.3-.1-.51-.16-.73.16-.21.32-.83 1.02-1.02 1.23-.19.22-.38.24-.7.08-.32-.16-1.37-.49-2.6-1.57-.96-.84-1.61-1.88-1.8-2.2-.19-.32-.02-.49.14-.65.14-.14.32-.38.49-.57.16-.19.21-.32.32-.54.11-.22.05-.4-.03-.57-.08-.16-.73-1.73-1-2.37-.26-.62-.53-.54-.73-.55h-.62c-.21 0-.57.08-.86.4-.3.32-1.13 1.08-1.13 2.64s1.16 3.07 1.32 3.29c.16.22 2.28 3.43 5.53 4.8.77.33 1.37.53 1.84.68.77.24 1.47.21 2.03.13.62-.09 1.9-.76 2.17-1.5.27-.73.27-1.36.19-1.5-.08-.13-.3-.21-.62-.37Z"/>
</svg>
